<?xml version="1.0" standalone="no"?>
<!DOCTYPE svg PUBLIC "-//W3C//DTD SVG 20010904//EN"
 "http://www.w3.org/TR/2001/REC-SVG-20010904/DTD/svg10.dtd">
<svg version="1.0" xmlns="http://www.w3.org/2000/svg"
 width="256.000000pt" height="256.000000pt" viewBox="0 0 256.000000 256.000000"
 preserveAspectRatio="xMidYMid meet">
<metadata>
Created by potrace 1.11, written by Peter Selinger 2001-2013
</metadata>
<g transform="translate(0.000000,256.000000) scale(0.100000,-0.100000)"
fill="#000000" stroke="none">
<path d="M1075 2545 c-285 -51 -515 -171 -712 -372 -185 -190 -299 -416 -347
-688 -20 -114 -14 -343 12 -465 109 -507 500 -895 1004 -995 93 -19 339 -28
408 -15 25 5 65 11 90 15 140 21 363 118 492 213 292 218 449 471 524 847 10
54 13 309 3 370 -25 157 -79 322 -150 450 -28 51 -30 59 -20 103 45 213 -87
442 -301 524 -102 38 -261 32 -352 -14 -38 -20 -39 -20 -120 1 -164 42 -381
52 -531 26z"/>
</g>
</svg>
