<?xml version="1.0" standalone="no"?>
<!DOCTYPE svg PUBLIC "-//W3C//DTD SVG 20010904//EN"
 "http://www.w3.org/TR/2001/REC-SVG-20010904/DTD/svg10.dtd">
<svg version="1.0" xmlns="http://www.w3.org/2000/svg"
 width="512.000000pt" height="512.000000pt" viewBox="0 0 512.000000 512.000000"
 preserveAspectRatio="xMidYMid meet">
<metadata>
Created by potrace 1.11, written by Peter Selinger 2001-2013
</metadata>
<g transform="translate(0.000000,512.000000) scale(0.100000,-0.100000)"
fill="#000000" stroke="none">
<path d="M3650 5100 c-155 -33 -258 -78 -372 -162 -236 -174 -379 -456 -379
-749 0 -223 32 -316 220 -643 l130 -226 -449 0 -448 0 -99 98 c-194 192 -421
312 -678 356 -115 20 -336 21 -448 1 -268 -47 -507 -174 -700 -374 l-79 -80
-116 -3 -117 -3 -27 -98 c-83 -300 -106 -660 -62 -997 82 -633 405 -1215 909
-1634 135 -113 182 -147 311 -224 433 -260 1003 -395 1494 -353 253 22 422 56
665 137 250 83 444 186 673 357 565 422 923 1028 1018 1727 23 169 23 491 0
660 -16 121 -51 287 -78 380 l-14 45 -287 3 c-158 1 -287 5 -287 7 0 3 58 106
129 230 125 218 166 306 191 410 78 331 -32 680 -287 915 -213 195 -530 281
-813 220z m347 -456 c63 -22 141 -72 192 -126 228 -236 155 -633 -143 -774
-66 -31 -88 -37 -173 -41 -113 -6 -179 8 -276 60 -67 35 -157 127 -192 198
-80 156 -67 345 32 497 63 94 169 166 291 197 69 18 200 12 269 -11z m-2478
-1490 c100 -22 213 -87 295 -169 83 -82 136 -168 173 -280 22 -68 26 -98 26
-195 0 -97 -4 -127 -26 -195 -62 -189 -184 -327 -362 -411 -93 -43 -182 -58
-314 -52 -173 8 -312 69 -433 192 -259 261 -258 674 3 935 169 169 391 230
638 175z"/>
</g>
</svg>
